<svg width="268" height="268" viewBox="0 0 268 268" fill="none" xmlns="http://www.w3.org/2000/svg">
<path fill-rule="evenodd" clip-rule="evenodd" d="M4 2C4 3.10457 3.10457 4 2 4C0.89543 4 0 3.10457 0 2C0 0.89543 0.89543 0 2 0C3.10457 0 4 0.89543 4 2ZM28 2C28 3.10457 27.1046 4 26 4C24.8954 4 24 3.10457 24 2C24 0.89543 24.8954 0 26 0C27.1046 0 28 0.89543 28 2ZM50 4C51.1046 4 52 3.10457 52 2C52 0.89543 51.1046 0 50 0C48.8954 0 48 0.89543 48 2C48 3.10457 48.8954 4 50 4ZM76 2C76 3.10457 75.1046 4 74 4C72.8954 4 72 3.10457 72 2C72 0.89543 72.8954 0 74 0C75.1046 0 76 0.89543 76 2ZM98 4C99.1046 4 100 3.10457 100 2C100 0.89543 99.1046 0 98 0C96.8954 0 96 0.89543 96 2C96 3.10457 96.8954 4 98 4ZM124 2C124 3.10457 123.105 4 122 4C120.895 4 120 3.10457 120 2C120 0.89543 120.895 0 122 0C123.105 0 124 0.89543 124 2ZM146 4C147.105 4 148 3.10457 148 2C148 0.89543 147.105 0 146 0C144.895 0 144 0.89543 144 2C144 3.10457 144.895 4 146 4ZM172 2C172 3.10457 171.105 4 170 4C168.895 4 168 3.10457 168 2C168 0.89543 168.895 0 170 0C171.105 0 172 0.89543 172 2ZM194 4C195.105 4 196 3.10457 196 2C196 0.89543 195.105 0 194 0C192.895 0 192 0.89543 192 2C192 3.10457 192.895 4 194 4ZM220 2C220 3.10457 219.105 4 218 4C216.895 4 216 3.10457 216 2C216 0.89543 216.895 0 218 0C219.105 0 220 0.89543 220 2ZM242 4C243.105 4 244 3.10457 244 2C244 0.89543 243.105 0 242 0C240.895 0 240 0.89543 240 2C240 3.10457 240.895 4 242 4ZM268 2C268 3.10457 267.105 4 266 4C264.895 4 264 3.10457 264 2C264 0.89543 264.895 0 266 0C267.105 0 268 0.89543 268 2ZM2 28C3.10457 28 4 27.1046 4 26C4 24.8954 3.10457 24 2 24C0.89543 24 0 24.8954 0 26C0 27.1046 0.89543 28 2 28ZM28 26C28 27.1046 27.1046 28 26 28C24.8954 28 24 27.1046 24 26C24 24.8954 24.8954 24 26 24C27.1046 24 28 24.8954 28 26ZM50 28C51.1046 28 52 27.1046 52 26C52 24.8954 51.1046 24 50 24C48.8954 24 48 24.8954 48 26C48 27.1046 48.8954 28 50 28ZM76 26C76 27.1046 75.1046 28 74 28C72.8954 28 72 27.1046 72 26C72 24.8954 72.8954 24 74 24C75.1046 24 76 24.8954 76 26ZM98 28C99.1046 28 100 27.1046 100 26C100 24.8954 99.1046 24 98 24C96.8954 24 96 24.8954 96 26C96 27.1046 96.8954 28 98 28ZM124 26C124 27.1046 123.105 28 122 28C120.895 28 120 27.1046 120 26C120 24.8954 120.895 24 122 24C123.105 24 124 24.8954 124 26ZM146 28C147.105 28 148 27.1046 148 26C148 24.8954 147.105 24 146 24C144.895 24 144 24.8954 144 26C144 27.1046 144.895 28 146 28ZM172 26C172 27.1046 171.105 28 170 28C168.895 28 168 27.1046 168 26C168 24.8954 168.895 24 170 24C171.105 24 172 24.8954 172 26ZM194 28C195.105 28 196 27.1046 196 26C196 24.8954 195.105 24 194 24C192.895 24 192 24.8954 192 26C192 27.1046 192.895 28 194 28ZM220 26C220 27.1046 219.105 28 218 28C216.895 28 216 27.1046 216 26C216 24.8954 216.895 24 218 24C219.105 24 220 24.8954 220 26ZM242 28C243.105 28 244 27.1046 244 26C244 24.8954 243.105 24 242 24C240.895 24 240 24.8954 240 26C240 27.1046 240.895 28 242 28ZM268 26C268 27.1046 267.105 28 266 28C264.895 28 264 27.1046 264 26C264 24.8954 264.895 24 266 24C267.105 24 268 24.8954 268 26ZM2 52C3.10457 52 4 51.1046 4 50C4 48.8954 3.10457 48 2 48C0.89543 48 0 48.8954 0 50C0 51.1046 0.89543 52 2 52ZM28 50C28 51.1046 27.1046 52 26 52C24.8954 52 24 51.1046 24 50C24 48.8954 24.8954 48 26 48C27.1046 48 28 48.8954 28 50ZM50 52C51.1046 52 52 51.1046 52 50C52 48.8954 51.1046 48 50 48C48.8954 48 48 48.8954 48 50C48 51.1046 48.8954 52 50 52ZM76 50C76 51.1046 75.1046 52 74 52C72.8954 52 72 51.1046 72 50C72 48.8954 72.8954 48 74 48C75.1046 48 76 48.8954 76 50ZM98 52C99.1046 52 100 51.1046 100 50C100 48.8954 99.1046 48 98 48C96.8954 48 96 48.8954 96 50C96 51.1046 96.8954 52 98 52ZM124 50C124 51.1046 123.105 52 122 52C120.895 52 120 51.1046 120 50C120 48.8954 120.895 48 122 48C123.105 48 124 48.8954 124 50ZM146 52C147.105 52 148 51.1046 148 50C148 48.8954 147.105 48 146 48C144.895 48 144 48.8954 144 50C144 51.1046 144.895 52 146 52ZM172 50C172 51.1046 171.105 52 170 52C168.895 52 168 51.1046 168 50C168 48.8954 168.895 48 170 48C171.105 48 172 48.8954 172 50ZM194 52C195.105 52 196 51.1046 196 50C196 48.8954 195.105 48 194 48C192.895 48 192 48.8954 192 50C192 51.1046 192.895 52 194 52ZM220 50C220 51.1046 219.105 52 218 52C216.895 52 216 51.1046 216 50C216 48.8954 216.895 48 218 48C219.105 48 220 48.8954 220 50ZM242 52C243.105 52 244 51.1046 244 50C244 48.8954 243.105 48 242 48C240.895 48 240 48.8954 240 50C240 51.1046 240.895 52 242 52ZM268 50C268 51.1046 267.105 52 266 52C264.895 52 264 51.1046 264 50C264 48.8954 264.895 48 266 48C267.105 48 268 48.8954 268 50ZM2 76C3.10457 76 4 75.1046 4 74C4 72.8954 3.10457 72 2 72C0.89543 72 0 72.8954 0 74C0 75.1046 0.89543 76 2 76ZM28 74C28 75.1046 27.1046 76 26 76C24.8954 76 24 75.1046 24 74C24 72.8954 24.8954 72 26 72C27.1046 72 28 72.8954 28 74ZM50 76C51.1046 76 52 75.1046 52 74C52 72.8954 51.1046 72 50 72C48.8954 72 48 72.8954 48 74C48 75.1046 48.8954 76 50 76ZM76 74C76 75.1046 75.1046 76 74 76C72.8954 76 72 75.1046 72 74C72 72.8954 72.8954 72 74 72C75.1046 72 76 72.8954 76 74ZM98 76C99.1046 76 100 75.1046 100 74C100 72.8954 99.1046 72 98 72C96.8954 72 96 72.8954 96 74C96 75.1046 96.8954 76 98 76ZM124 74C124 75.1046 123.105 76 122 76C120.895 76 120 75.1046 120 74C120 72.8954 120.895 72 122 72C123.105 72 124 72.8954 124 74ZM146 76C147.105 76 148 75.1046 148 74C148 72.8954 147.105 72 146 72C144.895 72 144 72.8954 144 74C144 75.1046 144.895 76 146 76ZM172 74C172 75.1046 171.105 76 170 76C168.895 76 168 75.1046 168 74C168 72.8954 168.895 72 170 72C171.105 72 172 72.8954 172 74ZM194 76C195.105 76 196 75.1046 196 74C196 72.8954 195.105 72 194 72C192.895 72 192 72.8954 192 74C192 75.1046 192.895 76 194 76ZM220 74C220 75.1046 219.105 76 218 76C216.895 76 216 75.1046 216 74C216 72.8954 216.895 72 218 72C219.105 72 220 72.8954 220 74ZM242 76C243.105 76 244 75.1046 244 74C244 72.8954 243.105 72 242 72C240.895 72 240 72.8954 240 74C240 75.1046 240.895 76 242 76ZM268 74C268 75.1046 267.105 76 266 76C264.895 76 264 75.1046 264 74C264 72.8954 264.895 72 266 72C267.105 72 268 72.8954 268 74ZM2 100C3.10457 100 4 99.1046 4 98C4 96.8954 3.10457 96 2 96C0.89543 96 0 96.8954 0 98C0 99.1046 0.89543 100 2 100ZM28 98C28 99.1046 27.1046 100 26 100C24.8954 100 24 99.1046 24 98C24 96.8954 24.8954 96 26 96C27.1046 96 28 96.8954 28 98ZM50 100C51.1046 100 52 99.1046 52 98C52 96.8954 51.1046 96 50 96C48.8954 96 48 96.8954 48 98C48 99.1046 48.8954 100 50 100ZM76 98C76 99.1046 75.1046 100 74 100C72.8954 100 72 99.1046 72 98C72 96.8954 72.8954 96 74 96C75.1046 96 76 96.8954 76 98ZM98 100C99.1046 100 100 99.1046 100 98C100 96.8954 99.1046 96 98 96C96.8954 96 96 96.8954 96 98C96 99.1046 96.8954 100 98 100ZM124 98C124 99.1046 123.105 100 122 100C120.895 100 120 99.1046 120 98C120 96.8954 120.895 96 122 96C123.105 96 124 96.8954 124 98ZM146 100C147.105 100 148 99.1046 148 98C148 96.8954 147.105 96 146 96C144.895 96 144 96.8954 144 98C144 99.1046 144.895 100 146 100ZM172 98C172 99.1046 171.105 100 170 100C168.895 100 168 99.1046 168 98C168 96.8954 168.895 96 170 96C171.105 96 172 96.8954 172 98ZM194 100C195.105 100 196 99.1046 196 98C196 96.8954 195.105 96 194 96C192.895 96 192 96.8954 192 98C192 99.1046 192.895 100 194 100ZM220 98C220 99.1046 219.105 100 218 100C216.895 100 216 99.1046 216 98C216 96.8954 216.895 96 218 96C219.105 96 220 96.8954 220 98ZM242 100C243.105 100 244 99.1046 244 98C244 96.8954 243.105 96 242 96C240.895 96 240 96.8954 240 98C240 99.1046 240.895 100 242 100ZM268 98C268 99.1046 267.105 100 266 100C264.895 100 264 99.1046 264 98C264 96.8954 264.895 96 266 96C267.105 96 268 96.8954 268 98ZM2 124C3.10457 124 4 123.105 4 122C4 120.895 3.10457 120 2 120C0.89543 120 0 120.895 0 122C0 123.105 0.89543 124 2 124ZM28 122C28 123.105 27.1046 124 26 124C24.8954 124 24 123.105 24 122C24 120.895 24.8954 120 26 120C27.1046 120 28 120.895 28 122ZM50 124C51.1046 124 52 123.105 52 122C52 120.895 51.1046 120 50 120C48.8954 120 48 120.895 48 122C48 123.105 48.8954 124 50 124ZM76 122C76 123.105 75.1046 124 74 124C72.8954 124 72 123.105 72 122C72 120.895 72.8954 120 74 120C75.1046 120 76 120.895 76 122ZM98 124C99.1046 124 100 123.105 100 122C100 120.895 99.1046 120 98 120C96.8954 120 96 120.895 96 122C96 123.105 96.8954 124 98 124ZM124 122C124 123.105 123.105 124 122 124C120.895 124 120 123.105 120 122C120 120.895 120.895 120 122 120C123.105 120 124 120.895 124 122ZM146 124C147.105 124 148 123.105 148 122C148 120.895 147.105 120 146 120C144.895 120 144 120.895 144 122C144 123.105 144.895 124 146 124ZM172 122C172 123.105 171.105 124 170 124C168.895 124 168 123.105 168 122C168 120.895 168.895 120 170 120C171.105 120 172 120.895 172 122ZM194 124C195.105 124 196 123.105 196 122C196 120.895 195.105 120 194 120C192.895 120 192 120.895 192 122C192 123.105 192.895 124 194 124ZM220 122C220 123.105 219.105 124 218 124C216.895 124 216 123.105 216 122C216 120.895 216.895 120 218 120C219.105 120 220 120.895 220 122ZM242 124C243.105 124 244 123.105 244 122C244 120.895 243.105 120 242 120C240.895 120 240 120.895 240 122C240 123.105 240.895 124 242 124ZM268 122C268 123.105 267.105 124 266 124C264.895 124 264 123.105 264 122C264 120.895 264.895 120 266 120C267.105 120 268 120.895 268 122ZM2 148C3.10457 148 4 147.105 4 146C4 144.895 3.10457 144 2 144C0.89543 144 0 144.895 0 146C0 147.105 0.89543 148 2 148ZM28 146C28 147.105 27.1046 148 26 148C24.8954 148 24 147.105 24 146C24 144.895 24.8954 144 26 144C27.1046 144 28 144.895 28 146ZM50 148C51.1046 148 52 147.105 52 146C52 144.895 51.1046 144 50 144C48.8954 144 48 144.895 48 146C48 147.105 48.8954 148 50 148ZM76 146C76 147.105 75.1046 148 74 148C72.8954 148 72 147.105 72 146C72 144.895 72.8954 144 74 144C75.1046 144 76 144.895 76 146ZM98 148C99.1046 148 100 147.105 100 146C100 144.895 99.1046 144 98 144C96.8954 144 96 144.895 96 146C96 147.105 96.8954 148 98 148ZM124 146C124 147.105 123.105 148 122 148C120.895 148 120 147.105 120 146C120 144.895 120.895 144 122 144C123.105 144 124 144.895 124 146ZM146 148C147.105 148 148 147.105 148 146C148 144.895 147.105 144 146 144C144.895 144 144 144.895 144 146C144 147.105 144.895 148 146 148ZM172 146C172 147.105 171.105 148 170 148C168.895 148 168 147.105 168 146C168 144.895 168.895 144 170 144C171.105 144 172 144.895 172 146ZM194 148C195.105 148 196 147.105 196 146C196 144.895 195.105 144 194 144C192.895 144 192 144.895 192 146C192 147.105 192.895 148 194 148ZM220 146C220 147.105 219.105 148 218 148C216.895 148 216 147.105 216 146C216 144.895 216.895 144 218 144C219.105 144 220 144.895 220 146ZM242 148C243.105 148 244 147.105 244 146C244 144.895 243.105 144 242 144C240.895 144 240 144.895 240 146C240 147.105 240.895 148 242 148ZM268 146C268 147.105 267.105 148 266 148C264.895 148 264 147.105 264 146C264 144.895 264.895 144 266 144C267.105 144 268 144.895 268 146ZM2 172C3.10457 172 4 171.105 4 170C4 168.895 3.10457 168 2 168C0.89543 168 0 168.895 0 170C0 171.105 0.89543 172 2 172ZM28 170C28 171.105 27.1046 172 26 172C24.8954 172 24 171.105 24 170C24 168.895 24.8954 168 26 168C27.1046 168 28 168.895 28 170ZM50 172C51.1046 172 52 171.105 52 170C52 168.895 51.1046 168 50 168C48.8954 168 48 168.895 48 170C48 171.105 48.8954 172 50 172ZM76 170C76 171.105 75.1046 172 74 172C72.8954 172 72 171.105 72 170C72 168.895 72.8954 168 74 168C75.1046 168 76 168.895 76 170ZM98 172C99.1046 172 100 171.105 100 170C100 168.895 99.1046 168 98 168C96.8954 168 96 168.895 96 170C96 171.105 96.8954 172 98 172ZM124 170C124 171.105 123.105 172 122 172C120.895 172 120 171.105 120 170C120 168.895 120.895 168 122 168C123.105 168 124 168.895 124 170ZM146 172C147.105 172 148 171.105 148 170C148 168.895 147.105 168 146 168C144.895 168 144 168.895 144 170C144 171.105 144.895 172 146 172ZM172 170C172 171.105 171.105 172 170 172C168.895 172 168 171.105 168 170C168 168.895 168.895 168 170 168C171.105 168 172 168.895 172 170ZM194 172C195.105 172 196 171.105 196 170C196 168.895 195.105 168 194 168C192.895 168 192 168.895 192 170C192 171.105 192.895 172 194 172ZM220 170C220 171.105 219.105 172 218 172C216.895 172 216 171.105 216 170C216 168.895 216.895 168 218 168C219.105 168 220 168.895 220 170ZM242 172C243.105 172 244 171.105 244 170C244 168.895 243.105 168 242 168C240.895 168 240 168.895 240 170C240 171.105 240.895 172 242 172ZM268 170C268 171.105 267.105 172 266 172C264.895 172 264 171.105 264 170C264 168.895 264.895 168 266 168C267.105 168 268 168.895 268 170ZM2 196C3.10457 196 4 195.105 4 194C4 192.895 3.10457 192 2 192C0.89543 192 0 192.895 0 194C0 195.105 0.89543 196 2 196ZM28 194C28 195.105 27.1046 196 26 196C24.8954 196 24 195.105 24 194C24 192.895 24.8954 192 26 192C27.1046 192 28 192.895 28 194ZM50 196C51.1046 196 52 195.105 52 194C52 192.895 51.1046 192 50 192C48.8954 192 48 192.895 48 194C48 195.105 48.8954 196 50 196ZM76 194C76 195.105 75.1046 196 74 196C72.8954 196 72 195.105 72 194C72 192.895 72.8954 192 74 192C75.1046 192 76 192.895 76 194ZM98 196C99.1046 196 100 195.105 100 194C100 192.895 99.1046 192 98 192C96.8954 192 96 192.895 96 194C96 195.105 96.8954 196 98 196ZM124 194C124 195.105 123.105 196 122 196C120.895 196 120 195.105 120 194C120 192.895 120.895 192 122 192C123.105 192 124 192.895 124 194ZM146 196C147.105 196 148 195.105 148 194C148 192.895 147.105 192 146 192C144.895 192 144 192.895 144 194C144 195.105 144.895 196 146 196ZM172 194C172 195.105 171.105 196 170 196C168.895 196 168 195.105 168 194C168 192.895 168.895 192 170 192C171.105 192 172 192.895 172 194ZM194 196C195.105 196 196 195.105 196 194C196 192.895 195.105 192 194 192C192.895 192 192 192.895 192 194C192 195.105 192.895 196 194 196ZM220 194C220 195.105 219.105 196 218 196C216.895 196 216 195.105 216 194C216 192.895 216.895 192 218 192C219.105 192 220 192.895 220 194ZM242 196C243.105 196 244 195.105 244 194C244 192.895 243.105 192 242 192C240.895 192 240 192.895 240 194C240 195.105 240.895 196 242 196ZM268 194C268 195.105 267.105 196 266 196C264.895 196 264 195.105 264 194C264 192.895 264.895 192 266 192C267.105 192 268 192.895 268 194ZM2 220C3.10457 220 4 219.105 4 218C4 216.895 3.10457 216 2 216C0.89543 216 0 216.895 0 218C0 219.105 0.89543 220 2 220ZM28 218C28 219.105 27.1046 220 26 220C24.8954 220 24 219.105 24 218C24 216.895 24.8954 216 26 216C27.1046 216 28 216.895 28 218ZM50 220C51.1046 220 52 219.105 52 218C52 216.895 51.1046 216 50 216C48.8954 216 48 216.895 48 218C48 219.105 48.8954 220 50 220ZM76 218C76 219.105 75.1046 220 74 220C72.8954 220 72 219.105 72 218C72 216.895 72.8954 216 74 216C75.1046 216 76 216.895 76 218ZM98 220C99.1046 220 100 219.105 100 218C100 216.895 99.1046 216 98 216C96.8954 216 96 216.895 96 218C96 219.105 96.8954 220 98 220ZM124 218C124 219.105 123.105 220 122 220C120.895 220 120 219.105 120 218C120 216.895 120.895 216 122 216C123.105 216 124 216.895 124 218ZM146 220C147.105 220 148 219.105 148 218C148 216.895 147.105 216 146 216C144.895 216 144 216.895 144 218C144 219.105 144.895 220 146 220ZM172 218C172 219.105 171.105 220 170 220C168.895 220 168 219.105 168 218C168 216.895 168.895 216 170 216C171.105 216 172 216.895 172 218ZM194 220C195.105 220 196 219.105 196 218C196 216.895 195.105 216 194 216C192.895 216 192 216.895 192 218C192 219.105 192.895 220 194 220ZM220 218C220 219.105 219.105 220 218 220C216.895 220 216 219.105 216 218C216 216.895 216.895 216 218 216C219.105 216 220 216.895 220 218ZM242 220C243.105 220 244 219.105 244 218C244 216.895 243.105 216 242 216C240.895 216 240 216.895 240 218C240 219.105 240.895 220 242 220ZM268 218C268 219.105 267.105 220 266 220C264.895 220 264 219.105 264 218C264 216.895 264.895 216 266 216C267.105 216 268 216.895 268 218ZM2 244C3.10457 244 4 243.105 4 242C4 240.895 3.10457 240 2 240C0.89543 240 0 240.895 0 242C0 243.105 0.89543 244 2 244ZM28 242C28 243.105 27.1046 244 26 244C24.8954 244 24 243.105 24 242C24 240.895 24.8954 240 26 240C27.1046 240 28 240.895 28 242ZM50 244C51.1046 244 52 243.105 52 242C52 240.895 51.1046 240 50 240C48.8954 240 48 240.895 48 242C48 243.105 48.8954 244 50 244ZM76 242C76 243.105 75.1046 244 74 244C72.8954 244 72 243.105 72 242C72 240.895 72.8954 240 74 240C75.1046 240 76 240.895 76 242ZM98 244C99.1046 244 100 243.105 100 242C100 240.895 99.1046 240 98 240C96.8954 240 96 240.895 96 242C96 243.105 96.8954 244 98 244ZM124 242C124 243.105 123.105 244 122 244C120.895 244 120 243.105 120 242C120 240.895 120.895 240 122 240C123.105 240 124 240.895 124 242ZM146 244C147.105 244 148 243.105 148 242C148 240.895 147.105 240 146 240C144.895 240 144 240.895 144 242C144 243.105 144.895 244 146 244ZM172 242C172 243.105 171.105 244 170 244C168.895 244 168 243.105 168 242C168 240.895 168.895 240 170 240C171.105 240 172 240.895 172 242ZM194 244C195.105 244 196 243.105 196 242C196 240.895 195.105 240 194 240C192.895 240 192 240.895 192 242C192 243.105 192.895 244 194 244ZM220 242C220 243.105 219.105 244 218 244C216.895 244 216 243.105 216 242C216 240.895 216.895 240 218 240C219.105 240 220 240.895 220 242ZM242 244C243.105 244 244 243.105 244 242C244 240.895 243.105 240 242 240C240.895 240 240 240.895 240 242C240 243.105 240.895 244 242 244ZM268 242C268 243.105 267.105 244 266 244C264.895 244 264 243.105 264 242C264 240.895 264.895 240 266 240C267.105 240 268 240.895 268 242ZM2 268C3.10457 268 4 267.105 4 266C4 264.895 3.10457 264 2 264C0.89543 264 0 264.895 0 266C0 267.105 0.89543 268 2 268ZM28 266C28 267.105 27.1046 268 26 268C24.8954 268 24 267.105 24 266C24 264.895 24.8954 264 26 264C27.1046 264 28 264.895 28 266ZM50 268C51.1046 268 52 267.105 52 266C52 264.895 51.1046 264 50 264C48.8954 264 48 264.895 48 266C48 267.105 48.8954 268 50 268ZM76 266C76 267.105 75.1046 268 74 268C72.8954 268 72 267.105 72 266C72 264.895 72.8954 264 74 264C75.1046 264 76 264.895 76 266ZM98 268C99.1046 268 100 267.105 100 266C100 264.895 99.1046 264 98 264C96.8954 264 96 264.895 96 266C96 267.105 96.8954 268 98 268ZM124 266C124 267.105 123.105 268 122 268C120.895 268 120 267.105 120 266C120 264.895 120.895 264 122 264C123.105 264 124 264.895 124 266ZM146 268C147.105 268 148 267.105 148 266C148 264.895 147.105 264 146 264C144.895 264 144 264.895 144 266C144 267.105 144.895 268 146 268ZM172 266C172 267.105 171.105 268 170 268C168.895 268 168 267.105 168 266C168 264.895 168.895 264 170 264C171.105 264 172 264.895 172 266ZM194 268C195.105 268 196 267.105 196 266C196 264.895 195.105 264 194 264C192.895 264 192 264.895 192 266C192 267.105 192.895 268 194 268ZM220 266C220 267.105 219.105 268 218 268C216.895 268 216 267.105 216 266C216 264.895 216.895 264 218 264C219.105 264 220 264.895 220 266ZM242 268C243.105 268 244 267.105 244 266C244 264.895 243.105 264 242 264C240.895 264 240 264.895 240 266C240 267.105 240.895 268 242 268ZM268 266C268 267.105 267.105 268 266 268C264.895 268 264 267.105 264 266C264 264.895 264.895 264 266 264C267.105 264 268 264.895 268 266Z" fill="#FF564F"/>
</svg>
